<mxfile host="app.diagrams.net" modified="2023-09-29T15:04:25.206Z" agent="Mozilla/5.0 (Windows NT 10.0; Win64; x64; rv:109.0) Gecko/20100101 Firefox/118.0" etag="0ZlO8z4Xg3w8OHJfm1-u" version="22.0.0" type="device">
  <diagram name="Page-1" id="kkWHbTxrzs5d13zvs2qK">
    <mxGraphModel dx="2274" dy="2588" grid="1" gridSize="10" guides="1" tooltips="1" connect="1" arrows="1" fold="1" page="1" pageScale="1" pageWidth="850" pageHeight="1100" math="0" shadow="0">
      <root>
        <mxCell id="0" />
        <mxCell id="1" parent="0" />
        <mxCell id="4k_QdJojIpqVkZexcfbO-4" value="Moderator" style="rounded=0;whiteSpace=wrap;html=1;" vertex="1" parent="1">
          <mxGeometry x="-320" y="450" width="120" height="60" as="geometry" />
        </mxCell>
        <mxCell id="4k_QdJojIpqVkZexcfbO-5" value="User" style="rounded=0;whiteSpace=wrap;html=1;" vertex="1" parent="1">
          <mxGeometry x="130" y="200" width="120" height="60" as="geometry" />
        </mxCell>
        <mxCell id="4k_QdJojIpqVkZexcfbO-6" value="Community" style="rounded=0;whiteSpace=wrap;html=1;" vertex="1" parent="1">
          <mxGeometry x="130" y="450" width="120" height="60" as="geometry" />
        </mxCell>
        <mxCell id="4k_QdJojIpqVkZexcfbO-7" value="Post" style="rounded=0;whiteSpace=wrap;html=1;" vertex="1" parent="1">
          <mxGeometry x="480" y="200" width="120" height="60" as="geometry" />
        </mxCell>
        <mxCell id="4k_QdJojIpqVkZexcfbO-8" value="Profile" style="rounded=0;whiteSpace=wrap;html=1;" vertex="1" parent="1">
          <mxGeometry x="-330" y="200" width="120" height="60" as="geometry" />
        </mxCell>
        <mxCell id="4k_QdJojIpqVkZexcfbO-9" value="Comment" style="rounded=0;whiteSpace=wrap;html=1;" vertex="1" parent="1">
          <mxGeometry x="-75" y="-20" width="120" height="60" as="geometry" />
        </mxCell>
        <mxCell id="4k_QdJojIpqVkZexcfbO-28" style="edgeStyle=orthogonalEdgeStyle;rounded=0;orthogonalLoop=1;jettySize=auto;html=1;entryX=0;entryY=0.5;entryDx=0;entryDy=0;" edge="1" parent="1" source="4k_QdJojIpqVkZexcfbO-10" target="4k_QdJojIpqVkZexcfbO-5">
          <mxGeometry relative="1" as="geometry" />
        </mxCell>
        <mxCell id="4k_QdJojIpqVkZexcfbO-29" style="edgeStyle=orthogonalEdgeStyle;rounded=0;orthogonalLoop=1;jettySize=auto;html=1;entryX=1;entryY=0.5;entryDx=0;entryDy=0;" edge="1" parent="1" source="4k_QdJojIpqVkZexcfbO-10" target="4k_QdJojIpqVkZexcfbO-8">
          <mxGeometry relative="1" as="geometry" />
        </mxCell>
        <mxCell id="4k_QdJojIpqVkZexcfbO-10" value="Create" style="rhombus;whiteSpace=wrap;html=1;rounded=0;" vertex="1" parent="1">
          <mxGeometry x="-55" y="190" width="80" height="80" as="geometry" />
        </mxCell>
        <mxCell id="4k_QdJojIpqVkZexcfbO-17" style="edgeStyle=orthogonalEdgeStyle;rounded=0;orthogonalLoop=1;jettySize=auto;html=1;entryX=1;entryY=0.5;entryDx=0;entryDy=0;" edge="1" parent="1" source="4k_QdJojIpqVkZexcfbO-15" target="4k_QdJojIpqVkZexcfbO-5">
          <mxGeometry relative="1" as="geometry" />
        </mxCell>
        <mxCell id="4k_QdJojIpqVkZexcfbO-15" value="Create" style="rhombus;whiteSpace=wrap;html=1;" vertex="1" parent="1">
          <mxGeometry x="330" y="190" width="80" height="80" as="geometry" />
        </mxCell>
        <mxCell id="4k_QdJojIpqVkZexcfbO-19" style="edgeStyle=orthogonalEdgeStyle;rounded=0;orthogonalLoop=1;jettySize=auto;html=1;entryX=0.5;entryY=1;entryDx=0;entryDy=0;" edge="1" parent="1" source="4k_QdJojIpqVkZexcfbO-16" target="4k_QdJojIpqVkZexcfbO-5">
          <mxGeometry relative="1" as="geometry" />
        </mxCell>
        <mxCell id="4k_QdJojIpqVkZexcfbO-16" value="Subscribe" style="rhombus;whiteSpace=wrap;html=1;" vertex="1" parent="1">
          <mxGeometry x="150" y="320" width="80" height="80" as="geometry" />
        </mxCell>
        <mxCell id="4k_QdJojIpqVkZexcfbO-18" value="" style="endArrow=none;html=1;rounded=0;entryX=0;entryY=0.5;entryDx=0;entryDy=0;exitX=1;exitY=0.5;exitDx=0;exitDy=0;" edge="1" parent="1" source="4k_QdJojIpqVkZexcfbO-15" target="4k_QdJojIpqVkZexcfbO-7">
          <mxGeometry width="50" height="50" relative="1" as="geometry">
            <mxPoint x="500" y="230" as="sourcePoint" />
            <mxPoint x="550" y="180" as="targetPoint" />
          </mxGeometry>
        </mxCell>
        <mxCell id="4k_QdJojIpqVkZexcfbO-20" value="" style="endArrow=none;html=1;rounded=0;entryX=0.5;entryY=1;entryDx=0;entryDy=0;exitX=0.5;exitY=0;exitDx=0;exitDy=0;" edge="1" parent="1" source="4k_QdJojIpqVkZexcfbO-6" target="4k_QdJojIpqVkZexcfbO-16">
          <mxGeometry width="50" height="50" relative="1" as="geometry">
            <mxPoint x="60" y="420" as="sourcePoint" />
            <mxPoint x="110" y="370" as="targetPoint" />
          </mxGeometry>
        </mxCell>
        <mxCell id="4k_QdJojIpqVkZexcfbO-24" style="edgeStyle=orthogonalEdgeStyle;rounded=0;orthogonalLoop=1;jettySize=auto;html=1;" edge="1" parent="1" source="4k_QdJojIpqVkZexcfbO-21" target="4k_QdJojIpqVkZexcfbO-4">
          <mxGeometry relative="1" as="geometry" />
        </mxCell>
        <mxCell id="4k_QdJojIpqVkZexcfbO-25" style="edgeStyle=orthogonalEdgeStyle;rounded=0;orthogonalLoop=1;jettySize=auto;html=1;entryX=0;entryY=0.5;entryDx=0;entryDy=0;" edge="1" parent="1" source="4k_QdJojIpqVkZexcfbO-21" target="4k_QdJojIpqVkZexcfbO-6">
          <mxGeometry relative="1" as="geometry" />
        </mxCell>
        <mxCell id="4k_QdJojIpqVkZexcfbO-21" value="manages" style="rhombus;whiteSpace=wrap;html=1;" vertex="1" parent="1">
          <mxGeometry x="-55" y="440" width="80" height="80" as="geometry" />
        </mxCell>
        <mxCell id="4k_QdJojIpqVkZexcfbO-30" value="&lt;u&gt;UserID&lt;/u&gt;" style="ellipse;whiteSpace=wrap;html=1;" vertex="1" parent="1">
          <mxGeometry x="100" y="80" width="90" height="50" as="geometry" />
        </mxCell>
        <mxCell id="4k_QdJojIpqVkZexcfbO-31" value="UserName&lt;span style=&quot;white-space: pre;&quot;&gt;&#x9;&lt;/span&gt;" style="ellipse;whiteSpace=wrap;html=1;" vertex="1" parent="1">
          <mxGeometry x="240" y="280" width="90" height="55" as="geometry" />
        </mxCell>
        <mxCell id="4k_QdJojIpqVkZexcfbO-32" value="Password" style="ellipse;whiteSpace=wrap;html=1;" vertex="1" parent="1">
          <mxGeometry x="300" y="120" width="90" height="55" as="geometry" />
        </mxCell>
        <mxCell id="4k_QdJojIpqVkZexcfbO-33" value="EmailID" style="ellipse;whiteSpace=wrap;html=1;" vertex="1" parent="1">
          <mxGeometry x="200" y="80" width="90" height="55" as="geometry" />
        </mxCell>
        <mxCell id="4k_QdJojIpqVkZexcfbO-34" value="SubscriberCount" style="ellipse;whiteSpace=wrap;html=1;" vertex="1" parent="1">
          <mxGeometry x="30" y="530" width="105" height="60" as="geometry" />
        </mxCell>
        <mxCell id="4k_QdJojIpqVkZexcfbO-35" value="Description" style="ellipse;whiteSpace=wrap;html=1;" vertex="1" parent="1">
          <mxGeometry x="100" y="590" width="90" height="55" as="geometry" />
        </mxCell>
        <mxCell id="4k_QdJojIpqVkZexcfbO-36" value="CommunityName" style="ellipse;whiteSpace=wrap;html=1;" vertex="1" parent="1">
          <mxGeometry x="200" y="582.5" width="120" height="70" as="geometry" />
        </mxCell>
        <mxCell id="4k_QdJojIpqVkZexcfbO-37" value="&lt;u&gt;CommunityID&lt;/u&gt;" style="ellipse;whiteSpace=wrap;html=1;" vertex="1" parent="1">
          <mxGeometry x="250" y="523" width="90" height="55" as="geometry" />
        </mxCell>
        <mxCell id="4k_QdJojIpqVkZexcfbO-43" style="edgeStyle=orthogonalEdgeStyle;rounded=0;orthogonalLoop=1;jettySize=auto;html=1;exitX=0.5;exitY=1;exitDx=0;exitDy=0;entryX=0.25;entryY=0;entryDx=0;entryDy=0;" edge="1" parent="1" source="4k_QdJojIpqVkZexcfbO-39" target="4k_QdJojIpqVkZexcfbO-5">
          <mxGeometry relative="1" as="geometry" />
        </mxCell>
        <mxCell id="4k_QdJojIpqVkZexcfbO-39" value="Write" style="rhombus;whiteSpace=wrap;html=1;" vertex="1" parent="1">
          <mxGeometry x="-55" y="67.5" width="80" height="80" as="geometry" />
        </mxCell>
        <mxCell id="4k_QdJojIpqVkZexcfbO-41" value="" style="endArrow=none;html=1;rounded=0;entryX=0.5;entryY=1;entryDx=0;entryDy=0;exitX=0.5;exitY=0;exitDx=0;exitDy=0;" edge="1" parent="1" source="4k_QdJojIpqVkZexcfbO-39" target="4k_QdJojIpqVkZexcfbO-9">
          <mxGeometry width="50" height="50" relative="1" as="geometry">
            <mxPoint x="-140" y="100" as="sourcePoint" />
            <mxPoint x="-90" y="50" as="targetPoint" />
          </mxGeometry>
        </mxCell>
        <mxCell id="4k_QdJojIpqVkZexcfbO-42" value="" style="endArrow=none;html=1;rounded=0;exitX=0.5;exitY=0;exitDx=0;exitDy=0;entryX=0.619;entryY=1.014;entryDx=0;entryDy=0;entryPerimeter=0;" edge="1" parent="1" source="4k_QdJojIpqVkZexcfbO-5" target="4k_QdJojIpqVkZexcfbO-30">
          <mxGeometry width="50" height="50" relative="1" as="geometry">
            <mxPoint x="30" y="140" as="sourcePoint" />
            <mxPoint x="80" y="90" as="targetPoint" />
          </mxGeometry>
        </mxCell>
        <mxCell id="4k_QdJojIpqVkZexcfbO-44" value="" style="endArrow=none;html=1;rounded=0;exitX=0.75;exitY=0;exitDx=0;exitDy=0;entryX=0.397;entryY=0.96;entryDx=0;entryDy=0;entryPerimeter=0;" edge="1" parent="1" source="4k_QdJojIpqVkZexcfbO-5" target="4k_QdJojIpqVkZexcfbO-33">
          <mxGeometry width="50" height="50" relative="1" as="geometry">
            <mxPoint x="200" y="190" as="sourcePoint" />
            <mxPoint x="250" y="140" as="targetPoint" />
          </mxGeometry>
        </mxCell>
        <mxCell id="4k_QdJojIpqVkZexcfbO-45" value="" style="endArrow=none;html=1;rounded=0;entryX=0;entryY=0.5;entryDx=0;entryDy=0;" edge="1" parent="1" source="4k_QdJojIpqVkZexcfbO-5" target="4k_QdJojIpqVkZexcfbO-32">
          <mxGeometry width="50" height="50" relative="1" as="geometry">
            <mxPoint x="330" y="100" as="sourcePoint" />
            <mxPoint x="380" y="50" as="targetPoint" />
          </mxGeometry>
        </mxCell>
        <mxCell id="4k_QdJojIpqVkZexcfbO-46" value="" style="endArrow=none;html=1;rounded=0;entryX=0;entryY=0.5;entryDx=0;entryDy=0;exitX=0.75;exitY=1;exitDx=0;exitDy=0;" edge="1" parent="1" source="4k_QdJojIpqVkZexcfbO-5" target="4k_QdJojIpqVkZexcfbO-31">
          <mxGeometry width="50" height="50" relative="1" as="geometry">
            <mxPoint x="210" y="310" as="sourcePoint" />
            <mxPoint x="260" y="260" as="targetPoint" />
          </mxGeometry>
        </mxCell>
        <mxCell id="4k_QdJojIpqVkZexcfbO-51" style="edgeStyle=orthogonalEdgeStyle;rounded=0;orthogonalLoop=1;jettySize=auto;html=1;entryX=0.5;entryY=0;entryDx=0;entryDy=0;" edge="1" parent="1" source="4k_QdJojIpqVkZexcfbO-48" target="4k_QdJojIpqVkZexcfbO-8">
          <mxGeometry relative="1" as="geometry">
            <Array as="points">
              <mxPoint x="540" y="-180" />
              <mxPoint x="-270" y="-180" />
            </Array>
          </mxGeometry>
        </mxCell>
        <mxCell id="4k_QdJojIpqVkZexcfbO-48" value="Indexes" style="rhombus;whiteSpace=wrap;html=1;" vertex="1" parent="1">
          <mxGeometry x="500" y="-130" width="80" height="80" as="geometry" />
        </mxCell>
        <mxCell id="4k_QdJojIpqVkZexcfbO-50" value="" style="endArrow=none;html=1;rounded=0;exitX=0.5;exitY=0;exitDx=0;exitDy=0;entryX=0.5;entryY=1;entryDx=0;entryDy=0;" edge="1" parent="1" source="4k_QdJojIpqVkZexcfbO-7" target="4k_QdJojIpqVkZexcfbO-48">
          <mxGeometry width="50" height="50" relative="1" as="geometry">
            <mxPoint x="480" y="160" as="sourcePoint" />
            <mxPoint x="530" y="110" as="targetPoint" />
            <Array as="points">
              <mxPoint x="540" y="30" />
            </Array>
          </mxGeometry>
        </mxCell>
        <mxCell id="4k_QdJojIpqVkZexcfbO-53" value="" style="endArrow=none;html=1;rounded=0;entryX=0;entryY=0.75;entryDx=0;entryDy=0;" edge="1" parent="1" source="4k_QdJojIpqVkZexcfbO-34" target="4k_QdJojIpqVkZexcfbO-6">
          <mxGeometry width="50" height="50" relative="1" as="geometry">
            <mxPoint x="82.5" y="509.28932188134524" as="sourcePoint" />
            <mxPoint x="82.5" y="459.28932188134524" as="targetPoint" />
          </mxGeometry>
        </mxCell>
        <mxCell id="4k_QdJojIpqVkZexcfbO-54" value="" style="endArrow=none;html=1;rounded=0;entryX=0.334;entryY=0.992;entryDx=0;entryDy=0;entryPerimeter=0;" edge="1" parent="1" target="4k_QdJojIpqVkZexcfbO-6">
          <mxGeometry width="50" height="50" relative="1" as="geometry">
            <mxPoint x="150" y="590" as="sourcePoint" />
            <mxPoint x="200" y="540" as="targetPoint" />
          </mxGeometry>
        </mxCell>
        <mxCell id="4k_QdJojIpqVkZexcfbO-55" value="" style="endArrow=none;html=1;rounded=0;exitX=0.233;exitY=0.055;exitDx=0;exitDy=0;exitPerimeter=0;" edge="1" parent="1" source="4k_QdJojIpqVkZexcfbO-36">
          <mxGeometry width="50" height="50" relative="1" as="geometry">
            <mxPoint x="180" y="560" as="sourcePoint" />
            <mxPoint x="230" y="510" as="targetPoint" />
          </mxGeometry>
        </mxCell>
        <mxCell id="4k_QdJojIpqVkZexcfbO-56" value="" style="endArrow=none;html=1;rounded=0;entryX=0.5;entryY=0;entryDx=0;entryDy=0;" edge="1" parent="1" source="4k_QdJojIpqVkZexcfbO-6" target="4k_QdJojIpqVkZexcfbO-37">
          <mxGeometry width="50" height="50" relative="1" as="geometry">
            <mxPoint x="250" y="530" as="sourcePoint" />
            <mxPoint x="320.71067811865476" y="480" as="targetPoint" />
          </mxGeometry>
        </mxCell>
        <mxCell id="4k_QdJojIpqVkZexcfbO-57" value="&lt;u&gt;PostID&lt;/u&gt;" style="ellipse;whiteSpace=wrap;html=1;" vertex="1" parent="1">
          <mxGeometry x="650" y="110" width="120" height="80" as="geometry" />
        </mxCell>
        <mxCell id="4k_QdJojIpqVkZexcfbO-58" value="TimeStamp" style="ellipse;whiteSpace=wrap;html=1;" vertex="1" parent="1">
          <mxGeometry x="570" y="375" width="100" height="45" as="geometry" />
        </mxCell>
        <mxCell id="4k_QdJojIpqVkZexcfbO-59" value="PostType" style="ellipse;whiteSpace=wrap;html=1;" vertex="1" parent="1">
          <mxGeometry x="600" y="280" width="120" height="80" as="geometry" />
        </mxCell>
        <mxCell id="4k_QdJojIpqVkZexcfbO-60" value="Text" style="ellipse;whiteSpace=wrap;html=1;" vertex="1" parent="1">
          <mxGeometry x="700" y="220" width="80" height="50" as="geometry" />
        </mxCell>
        <mxCell id="4k_QdJojIpqVkZexcfbO-61" value="Audio" style="ellipse;whiteSpace=wrap;html=1;" vertex="1" parent="1">
          <mxGeometry x="750" y="295" width="80" height="50" as="geometry" />
        </mxCell>
        <mxCell id="4k_QdJojIpqVkZexcfbO-62" value="Video" style="ellipse;whiteSpace=wrap;html=1;" vertex="1" parent="1">
          <mxGeometry x="700" y="370" width="80" height="50" as="geometry" />
        </mxCell>
        <mxCell id="4k_QdJojIpqVkZexcfbO-64" value="" style="endArrow=none;html=1;rounded=0;entryX=1;entryY=0.144;entryDx=0;entryDy=0;entryPerimeter=0;" edge="1" parent="1" source="4k_QdJojIpqVkZexcfbO-57" target="4k_QdJojIpqVkZexcfbO-7">
          <mxGeometry width="50" height="50" relative="1" as="geometry">
            <mxPoint x="390" y="450" as="sourcePoint" />
            <mxPoint x="440" y="400" as="targetPoint" />
          </mxGeometry>
        </mxCell>
        <mxCell id="4k_QdJojIpqVkZexcfbO-65" value="" style="endArrow=none;html=1;rounded=0;entryX=0.642;entryY=0.985;entryDx=0;entryDy=0;exitX=0.5;exitY=0;exitDx=0;exitDy=0;entryPerimeter=0;" edge="1" parent="1" source="4k_QdJojIpqVkZexcfbO-58" target="4k_QdJojIpqVkZexcfbO-7">
          <mxGeometry width="50" height="50" relative="1" as="geometry">
            <mxPoint x="530" y="360" as="sourcePoint" />
            <mxPoint x="580" y="310" as="targetPoint" />
          </mxGeometry>
        </mxCell>
        <mxCell id="4k_QdJojIpqVkZexcfbO-67" value="" style="endArrow=none;html=1;rounded=0;exitX=0.75;exitY=1;exitDx=0;exitDy=0;entryX=0.5;entryY=0;entryDx=0;entryDy=0;" edge="1" parent="1" source="4k_QdJojIpqVkZexcfbO-7" target="4k_QdJojIpqVkZexcfbO-59">
          <mxGeometry width="50" height="50" relative="1" as="geometry">
            <mxPoint x="600" y="300" as="sourcePoint" />
            <mxPoint x="650" y="250" as="targetPoint" />
          </mxGeometry>
        </mxCell>
        <mxCell id="4k_QdJojIpqVkZexcfbO-68" value="" style="endArrow=none;html=1;rounded=0;entryX=0;entryY=0.5;entryDx=0;entryDy=0;exitX=0.625;exitY=0.984;exitDx=0;exitDy=0;exitPerimeter=0;" edge="1" parent="1" source="4k_QdJojIpqVkZexcfbO-59" target="4k_QdJojIpqVkZexcfbO-62">
          <mxGeometry width="50" height="50" relative="1" as="geometry">
            <mxPoint x="620" y="440" as="sourcePoint" />
            <mxPoint x="670" y="390" as="targetPoint" />
          </mxGeometry>
        </mxCell>
        <mxCell id="4k_QdJojIpqVkZexcfbO-69" value="" style="endArrow=none;html=1;rounded=0;entryX=1;entryY=0.5;entryDx=0;entryDy=0;" edge="1" parent="1" source="4k_QdJojIpqVkZexcfbO-61" target="4k_QdJojIpqVkZexcfbO-59">
          <mxGeometry width="50" height="50" relative="1" as="geometry">
            <mxPoint x="659.2893218813452" y="325" as="sourcePoint" />
            <mxPoint x="659.2893218813452" y="275" as="targetPoint" />
            <Array as="points" />
          </mxGeometry>
        </mxCell>
        <mxCell id="4k_QdJojIpqVkZexcfbO-71" value="" style="endArrow=none;html=1;rounded=0;entryX=0;entryY=1;entryDx=0;entryDy=0;exitX=0.751;exitY=0.075;exitDx=0;exitDy=0;exitPerimeter=0;" edge="1" parent="1" source="4k_QdJojIpqVkZexcfbO-59" target="4k_QdJojIpqVkZexcfbO-60">
          <mxGeometry width="50" height="50" relative="1" as="geometry">
            <mxPoint x="670" y="310" as="sourcePoint" />
            <mxPoint x="720" y="260" as="targetPoint" />
          </mxGeometry>
        </mxCell>
        <mxCell id="4k_QdJojIpqVkZexcfbO-72" value="&lt;u&gt;ModeratorID&lt;/u&gt;" style="ellipse;whiteSpace=wrap;html=1;" vertex="1" parent="1">
          <mxGeometry x="-430" y="540" width="120" height="80" as="geometry" />
        </mxCell>
        <mxCell id="4k_QdJojIpqVkZexcfbO-73" value="Permissions" style="ellipse;whiteSpace=wrap;html=1;" vertex="1" parent="1">
          <mxGeometry x="-250" y="540" width="120" height="80" as="geometry" />
        </mxCell>
        <mxCell id="4k_QdJojIpqVkZexcfbO-75" value="" style="endArrow=none;html=1;rounded=0;entryX=0.25;entryY=1;entryDx=0;entryDy=0;exitX=0.5;exitY=0;exitDx=0;exitDy=0;" edge="1" parent="1" source="4k_QdJojIpqVkZexcfbO-72" target="4k_QdJojIpqVkZexcfbO-4">
          <mxGeometry width="50" height="50" relative="1" as="geometry">
            <mxPoint x="-400" y="520" as="sourcePoint" />
            <mxPoint x="-350" y="470" as="targetPoint" />
          </mxGeometry>
        </mxCell>
        <mxCell id="4k_QdJojIpqVkZexcfbO-76" value="" style="endArrow=none;html=1;rounded=0;exitX=0.5;exitY=1;exitDx=0;exitDy=0;entryX=0.5;entryY=0;entryDx=0;entryDy=0;" edge="1" parent="1" source="4k_QdJojIpqVkZexcfbO-4" target="4k_QdJojIpqVkZexcfbO-73">
          <mxGeometry width="50" height="50" relative="1" as="geometry">
            <mxPoint x="-160" y="560" as="sourcePoint" />
            <mxPoint x="-110" y="510" as="targetPoint" />
          </mxGeometry>
        </mxCell>
        <mxCell id="4k_QdJojIpqVkZexcfbO-77" value="&lt;u&gt;ProfileID&lt;/u&gt;" style="ellipse;whiteSpace=wrap;html=1;" vertex="1" parent="1">
          <mxGeometry x="-440" y="80" width="100" height="70" as="geometry" />
        </mxCell>
        <mxCell id="4k_QdJojIpqVkZexcfbO-78" value="Name" style="ellipse;whiteSpace=wrap;html=1;" vertex="1" parent="1">
          <mxGeometry x="-460" y="190" width="100" height="70" as="geometry" />
        </mxCell>
        <mxCell id="4k_QdJojIpqVkZexcfbO-79" value="Description" style="ellipse;whiteSpace=wrap;html=1;" vertex="1" parent="1">
          <mxGeometry x="-450" y="295" width="100" height="70" as="geometry" />
        </mxCell>
        <mxCell id="4k_QdJojIpqVkZexcfbO-80" value="Followers" style="ellipse;whiteSpace=wrap;html=1;" vertex="1" parent="1">
          <mxGeometry x="-330" y="295" width="100" height="70" as="geometry" />
        </mxCell>
        <mxCell id="4k_QdJojIpqVkZexcfbO-81" value="Interests" style="ellipse;whiteSpace=wrap;html=1;" vertex="1" parent="1">
          <mxGeometry x="-210" y="295" width="90" height="65" as="geometry" />
        </mxCell>
        <mxCell id="4k_QdJojIpqVkZexcfbO-82" value="" style="endArrow=none;html=1;rounded=0;entryX=0.25;entryY=0;entryDx=0;entryDy=0;exitX=0.738;exitY=0.982;exitDx=0;exitDy=0;exitPerimeter=0;" edge="1" parent="1" source="4k_QdJojIpqVkZexcfbO-77" target="4k_QdJojIpqVkZexcfbO-8">
          <mxGeometry width="50" height="50" relative="1" as="geometry">
            <mxPoint x="-350" y="170" as="sourcePoint" />
            <mxPoint x="-300" y="120" as="targetPoint" />
          </mxGeometry>
        </mxCell>
        <mxCell id="4k_QdJojIpqVkZexcfbO-83" value="" style="endArrow=none;html=1;rounded=0;entryX=0;entryY=0.5;entryDx=0;entryDy=0;exitX=1.005;exitY=0.552;exitDx=0;exitDy=0;exitPerimeter=0;" edge="1" parent="1" source="4k_QdJojIpqVkZexcfbO-78" target="4k_QdJojIpqVkZexcfbO-8">
          <mxGeometry width="50" height="50" relative="1" as="geometry">
            <mxPoint x="-390" y="270" as="sourcePoint" />
            <mxPoint x="-340" y="220" as="targetPoint" />
          </mxGeometry>
        </mxCell>
        <mxCell id="4k_QdJojIpqVkZexcfbO-85" value="" style="endArrow=none;html=1;rounded=0;entryX=0.16;entryY=1.01;entryDx=0;entryDy=0;entryPerimeter=0;exitX=0.5;exitY=0;exitDx=0;exitDy=0;" edge="1" parent="1" source="4k_QdJojIpqVkZexcfbO-79" target="4k_QdJojIpqVkZexcfbO-8">
          <mxGeometry width="50" height="50" relative="1" as="geometry">
            <mxPoint x="-390" y="310" as="sourcePoint" />
            <mxPoint x="-340" y="260" as="targetPoint" />
          </mxGeometry>
        </mxCell>
        <mxCell id="4k_QdJojIpqVkZexcfbO-86" value="" style="endArrow=none;html=1;rounded=0;entryX=0.421;entryY=1.016;entryDx=0;entryDy=0;entryPerimeter=0;" edge="1" parent="1" source="4k_QdJojIpqVkZexcfbO-80" target="4k_QdJojIpqVkZexcfbO-8">
          <mxGeometry width="50" height="50" relative="1" as="geometry">
            <mxPoint x="-340" y="320" as="sourcePoint" />
            <mxPoint x="-290" y="270" as="targetPoint" />
          </mxGeometry>
        </mxCell>
        <mxCell id="4k_QdJojIpqVkZexcfbO-87" value="" style="endArrow=none;html=1;rounded=0;exitX=0.75;exitY=1;exitDx=0;exitDy=0;entryX=0.477;entryY=0.012;entryDx=0;entryDy=0;entryPerimeter=0;" edge="1" parent="1" source="4k_QdJojIpqVkZexcfbO-8" target="4k_QdJojIpqVkZexcfbO-81">
          <mxGeometry width="50" height="50" relative="1" as="geometry">
            <mxPoint x="-220" y="310" as="sourcePoint" />
            <mxPoint x="-170" y="260" as="targetPoint" />
          </mxGeometry>
        </mxCell>
        <mxCell id="4k_QdJojIpqVkZexcfbO-88" value="Fname" style="ellipse;whiteSpace=wrap;html=1;" vertex="1" parent="1">
          <mxGeometry x="-580" y="160" width="90" height="52.5" as="geometry" />
        </mxCell>
        <mxCell id="4k_QdJojIpqVkZexcfbO-89" value="LName" style="ellipse;whiteSpace=wrap;html=1;" vertex="1" parent="1">
          <mxGeometry x="-580" y="227.5" width="90" height="52.5" as="geometry" />
        </mxCell>
        <mxCell id="4k_QdJojIpqVkZexcfbO-91" value="" style="endArrow=none;html=1;rounded=0;entryX=0.047;entryY=0.702;entryDx=0;entryDy=0;entryPerimeter=0;exitX=1;exitY=0.5;exitDx=0;exitDy=0;" edge="1" parent="1" source="4k_QdJojIpqVkZexcfbO-89" target="4k_QdJojIpqVkZexcfbO-78">
          <mxGeometry width="50" height="50" relative="1" as="geometry">
            <mxPoint x="-510" y="310" as="sourcePoint" />
            <mxPoint x="-460" y="260" as="targetPoint" />
          </mxGeometry>
        </mxCell>
        <mxCell id="4k_QdJojIpqVkZexcfbO-93" value="" style="endArrow=none;html=1;rounded=0;exitX=1;exitY=0.5;exitDx=0;exitDy=0;entryX=0.034;entryY=0.301;entryDx=0;entryDy=0;entryPerimeter=0;" edge="1" parent="1" source="4k_QdJojIpqVkZexcfbO-88" target="4k_QdJojIpqVkZexcfbO-78">
          <mxGeometry width="50" height="50" relative="1" as="geometry">
            <mxPoint x="-490" y="240" as="sourcePoint" />
            <mxPoint x="-440" y="190" as="targetPoint" />
          </mxGeometry>
        </mxCell>
        <mxCell id="4k_QdJojIpqVkZexcfbO-94" value="Content" style="ellipse;whiteSpace=wrap;html=1;" vertex="1" parent="1">
          <mxGeometry x="-200" y="20" width="100" height="60" as="geometry" />
        </mxCell>
        <mxCell id="4k_QdJojIpqVkZexcfbO-96" value="&lt;u&gt;CommentID&lt;/u&gt;" style="ellipse;whiteSpace=wrap;html=1;" vertex="1" parent="1">
          <mxGeometry x="-200" y="-70" width="100" height="60" as="geometry" />
        </mxCell>
        <mxCell id="4k_QdJojIpqVkZexcfbO-97" value="TimeStamp" style="ellipse;whiteSpace=wrap;html=1;" vertex="1" parent="1">
          <mxGeometry x="60" y="-70" width="100" height="60" as="geometry" />
        </mxCell>
        <mxCell id="4k_QdJojIpqVkZexcfbO-99" value="" style="endArrow=none;html=1;rounded=0;entryX=-0.003;entryY=0.635;entryDx=0;entryDy=0;entryPerimeter=0;exitX=1;exitY=0.5;exitDx=0;exitDy=0;" edge="1" parent="1" source="4k_QdJojIpqVkZexcfbO-94" target="4k_QdJojIpqVkZexcfbO-9">
          <mxGeometry width="50" height="50" relative="1" as="geometry">
            <mxPoint x="-140" y="130" as="sourcePoint" />
            <mxPoint x="-90" y="80" as="targetPoint" />
          </mxGeometry>
        </mxCell>
        <mxCell id="4k_QdJojIpqVkZexcfbO-100" value="" style="endArrow=none;html=1;rounded=0;entryX=0;entryY=0.25;entryDx=0;entryDy=0;" edge="1" parent="1" source="4k_QdJojIpqVkZexcfbO-96" target="4k_QdJojIpqVkZexcfbO-9">
          <mxGeometry width="50" height="50" relative="1" as="geometry">
            <mxPoint x="-150" y="30" as="sourcePoint" />
            <mxPoint x="-100" y="-20" as="targetPoint" />
          </mxGeometry>
        </mxCell>
        <mxCell id="4k_QdJojIpqVkZexcfbO-101" value="" style="endArrow=none;html=1;rounded=0;entryX=0.5;entryY=1;entryDx=0;entryDy=0;" edge="1" parent="1" target="4k_QdJojIpqVkZexcfbO-97">
          <mxGeometry width="50" height="50" relative="1" as="geometry">
            <mxPoint x="45" y="10.000000000000227" as="sourcePoint" />
            <mxPoint x="75" y="-9.999999999999773" as="targetPoint" />
          </mxGeometry>
        </mxCell>
        <mxCell id="4k_QdJojIpqVkZexcfbO-104" style="edgeStyle=orthogonalEdgeStyle;rounded=0;orthogonalLoop=1;jettySize=auto;html=1;entryX=1;entryY=0.5;entryDx=0;entryDy=0;" edge="1" parent="1" source="4k_QdJojIpqVkZexcfbO-103" target="4k_QdJojIpqVkZexcfbO-6">
          <mxGeometry relative="1" as="geometry" />
        </mxCell>
        <mxCell id="4k_QdJojIpqVkZexcfbO-103" value="Has" style="rhombus;whiteSpace=wrap;html=1;" vertex="1" parent="1">
          <mxGeometry x="370" y="440" width="80" height="80" as="geometry" />
        </mxCell>
        <mxCell id="4k_QdJojIpqVkZexcfbO-105" value="" style="endArrow=none;html=1;rounded=0;exitX=1;exitY=0.5;exitDx=0;exitDy=0;entryX=0.5;entryY=1;entryDx=0;entryDy=0;" edge="1" parent="1" source="4k_QdJojIpqVkZexcfbO-103" target="4k_QdJojIpqVkZexcfbO-7">
          <mxGeometry width="50" height="50" relative="1" as="geometry">
            <mxPoint x="400" y="420" as="sourcePoint" />
            <mxPoint x="450" y="370" as="targetPoint" />
            <Array as="points">
              <mxPoint x="540" y="480" />
            </Array>
          </mxGeometry>
        </mxCell>
        <mxCell id="4k_QdJojIpqVkZexcfbO-107" value="contains" style="rhombus;whiteSpace=wrap;html=1;rounded=0;" vertex="1" parent="1">
          <mxGeometry x="200" y="-160" width="80" height="80" as="geometry" />
        </mxCell>
        <mxCell id="4k_QdJojIpqVkZexcfbO-110" value="" style="endArrow=none;html=1;rounded=0;entryX=0;entryY=0.5;entryDx=0;entryDy=0;exitX=0.542;exitY=0.004;exitDx=0;exitDy=0;exitPerimeter=0;" edge="1" parent="1" source="4k_QdJojIpqVkZexcfbO-9" target="4k_QdJojIpqVkZexcfbO-107">
          <mxGeometry width="50" height="50" relative="1" as="geometry">
            <mxPoint x="-30" y="-70" as="sourcePoint" />
            <mxPoint x="20" y="-120" as="targetPoint" />
            <Array as="points">
              <mxPoint x="-10" y="-120" />
            </Array>
          </mxGeometry>
        </mxCell>
        <mxCell id="4k_QdJojIpqVkZexcfbO-111" style="edgeStyle=orthogonalEdgeStyle;rounded=0;orthogonalLoop=1;jettySize=auto;html=1;entryX=0.049;entryY=0.002;entryDx=0;entryDy=0;entryPerimeter=0;" edge="1" parent="1" source="4k_QdJojIpqVkZexcfbO-107" target="4k_QdJojIpqVkZexcfbO-7">
          <mxGeometry relative="1" as="geometry" />
        </mxCell>
        <mxCell id="4k_QdJojIpqVkZexcfbO-112" value="Yed" style="ellipse;whiteSpace=wrap;html=1;" vertex="1" parent="1">
          <mxGeometry x="-290" y="640" width="90" height="60" as="geometry" />
        </mxCell>
        <mxCell id="4k_QdJojIpqVkZexcfbO-113" value="No" style="ellipse;whiteSpace=wrap;html=1;" vertex="1" parent="1">
          <mxGeometry x="-180" y="635" width="90" height="65" as="geometry" />
        </mxCell>
        <mxCell id="4k_QdJojIpqVkZexcfbO-114" value="" style="endArrow=none;html=1;rounded=0;exitX=0.5;exitY=0;exitDx=0;exitDy=0;entryX=0.38;entryY=0.985;entryDx=0;entryDy=0;entryPerimeter=0;" edge="1" parent="1" source="4k_QdJojIpqVkZexcfbO-112" target="4k_QdJojIpqVkZexcfbO-73">
          <mxGeometry width="50" height="50" relative="1" as="geometry">
            <mxPoint x="-300" y="660" as="sourcePoint" />
            <mxPoint x="-250" y="610" as="targetPoint" />
          </mxGeometry>
        </mxCell>
        <mxCell id="4k_QdJojIpqVkZexcfbO-115" value="" style="endArrow=none;html=1;rounded=0;exitX=0.663;exitY=0.968;exitDx=0;exitDy=0;exitPerimeter=0;entryX=0.484;entryY=0.003;entryDx=0;entryDy=0;entryPerimeter=0;" edge="1" parent="1" source="4k_QdJojIpqVkZexcfbO-73" target="4k_QdJojIpqVkZexcfbO-113">
          <mxGeometry width="50" height="50" relative="1" as="geometry">
            <mxPoint x="-220" y="680" as="sourcePoint" />
            <mxPoint x="-140" y="630" as="targetPoint" />
          </mxGeometry>
        </mxCell>
      </root>
    </mxGraphModel>
  </diagram>
</mxfile>
